# xmcd CD database file
#
# Track frame offsets:
#	150
#	25352
#	52322
#	60067
#	79792
#	98822
#	122945
#	137802
#	156895
#	168315
#	190370
#	214652
#	218265
#
# Disc length: 3219 seconds
#
# Revision: 7
# Processed by: cddbd v1.5PL3 Copyright (c) Steve Scherf et al.
# Submitted via: CDex 1.50Beta7
#
DISCID=b20c910d
DTITLE=より子。 - Aizenaha
DYEAR=2002
DGENRE=JPop
TTITLE0=イロ
TTITLE1=ほんとはね。
TTITLE2=LAST OF PAST
TTITLE3=My REVoLUTIoN
TTITLE4=鍵
TTITLE5=Na-MI
TTITLE6=箱のなか
TTITLE7=みんなぼっち
TTITLE8=ありがと。
TTITLE9=Plume Radio
TTITLE10=NOISE
TTITLE11=Born
TTITLE12=No name
EXTD=YEAR: 2002/07/27
EXTT0=
EXTT1=
EXTT2=
EXTT3=
EXTT4=
EXTT5=
EXTT6=
EXTT7=
EXTT8=
EXTT9=
EXTT10=
EXTT11=
EXTT12=
PLAYORDER=
